<svg width="28" height="28" viewBox="0 0 28 28" fill="none" xmlns="http://www.w3.org/2000/svg">
<path fill-rule="evenodd" clip-rule="evenodd" d="M1.74992 14C1.74992 14.232 1.84211 14.4546 2.0062 14.6187C2.17029 14.7828 2.39285 14.875 2.62492 14.875L23.2627 14.875L17.7554 20.3805C17.5911 20.5448 17.4988 20.7676 17.4988 21C17.4988 21.2323 17.5911 21.4551 17.7554 21.6195C17.9197 21.7838 18.1426 21.8761 18.3749 21.8761C18.6073 21.8761 18.8301 21.7838 18.9944 21.6195L25.9944 14.6195C26.0759 14.5382 26.1406 14.4416 26.1847 14.3353C26.2288 14.229 26.2515 14.115 26.2515 14C26.2515 13.8849 26.2288 13.7709 26.1847 13.6646C26.1406 13.5583 26.0759 13.4617 25.9944 13.3805L18.9944 6.38045C18.9131 6.2991 18.8165 6.23457 18.7102 6.19054C18.6039 6.14651 18.49 6.12385 18.3749 6.12385C18.1426 6.12385 17.9197 6.21615 17.7554 6.38045C17.5911 6.54475 17.4988 6.7676 17.4988 6.99995C17.4988 7.23231 17.5911 7.45515 17.7554 7.61945L23.2627 13.125L2.62492 13.125C2.39285 13.125 2.17029 13.2171 2.0062 13.3812C1.84211 13.5453 1.74992 13.7679 1.74992 14Z" fill="#F9250F"/>
</svg>
