<svg width="28" height="28" viewBox="0 0 28 28" fill="none" xmlns="http://www.w3.org/2000/svg">
<path fill-rule="evenodd" clip-rule="evenodd" d="M26.2498 13.9999C26.2498 14.232 26.1577 14.4545 25.9936 14.6186C25.8295 14.7827 25.6069 14.8749 25.3748 14.8749L4.73719 14.8749L10.2444 20.3804C10.4087 20.5447 10.501 20.7675 10.501 20.9999C10.501 21.2322 10.4087 21.4551 10.2444 21.6194C10.0801 21.7837 9.85727 21.876 9.62492 21.876C9.39256 21.876 9.16972 21.7837 9.00542 21.6194L2.00545 14.6194C1.92397 14.5381 1.85932 14.4416 1.8152 14.3352C1.77109 14.2289 1.74839 14.115 1.74839 13.9999C1.74839 13.8848 1.77109 13.7708 1.8152 13.6645C1.85932 13.5582 1.92397 13.4617 2.00545 13.3804L9.00542 6.38042C9.08677 6.29907 9.18335 6.23454 9.28965 6.19051C9.39594 6.14648 9.50986 6.12382 9.62491 6.12382C9.85727 6.12382 10.0801 6.21612 10.2444 6.38042C10.4087 6.54473 10.501 6.76757 10.501 6.99992C10.501 7.23228 10.4087 7.45512 10.2444 7.61942L4.73719 13.1249L25.3748 13.1249C25.6069 13.1249 25.8295 13.2171 25.9936 13.3812C26.1577 13.5453 26.2498 13.7678 26.2498 13.9999Z" fill="white"/>
</svg>
