<svg width="20" height="21" viewBox="0 0 20 21" fill="none" xmlns="http://www.w3.org/2000/svg">
<path d="M9.99992 8.34167C9.08325 8.34167 8.33325 9.09242 8.33325 10.01C8.33325 10.9276 9.08325 11.6783 9.99992 11.6783C10.9166 11.6783 11.6666 10.9276 11.6666 10.01C11.6666 9.09242 10.9166 8.34167 9.99992 8.34167ZM14.9999 8.34167C14.0832 8.34167 13.3333 9.09242 13.3333 10.01C13.3333 10.9276 14.0832 11.6783 14.9999 11.6783C15.9166 11.6783 16.6666 10.9276 16.6666 10.01C16.6666 9.09242 15.9166 8.34167 14.9999 8.34167ZM4.99992 8.34167C4.08325 8.34167 3.33325 9.09242 3.33325 10.01C3.33325 10.9276 4.08325 11.6783 4.99992 11.6783C5.91658 11.6783 6.66658 10.9276 6.66658 10.01C6.66658 9.09242 5.91658 8.34167 4.99992 8.34167Z" fill="black"/>
</svg>
