<svg width="106" height="34" viewBox="0 0 106 34" fill="none" xmlns="http://www.w3.org/2000/svg">
<path d="M21.6225 0V26.3119H17.3828L4.98487 8.38948H4.76646V26.3119H0V0H4.2654L16.6505 17.9352H16.8817V0H21.6225Z" fill="white"/>
<path d="M34.8445 26.6973C32.8659 26.6973 31.1572 26.2862 29.7183 25.4639C28.2879 24.6331 27.1873 23.4597 26.4164 21.9437C25.6456 20.4191 25.2602 18.6247 25.2602 16.5605C25.2602 14.5306 25.6456 12.7491 26.4164 11.2159C27.1959 9.67424 28.2836 8.47513 29.6797 7.61862C31.0758 6.75355 32.716 6.32102 34.6004 6.32102C35.8166 6.32102 36.9643 6.51801 38.0435 6.912C39.1313 7.29743 40.0906 7.89699 40.9214 8.71067C41.7607 9.52435 42.4203 10.5607 42.8999 11.8198C43.3795 13.0703 43.6194 14.5606 43.6194 16.2907V17.7168H27.4442V14.582H39.1612C39.1527 13.6913 38.96 12.899 38.5831 12.2052C38.2062 11.5029 37.6795 10.9504 37.0029 10.5479C36.3348 10.1453 35.5554 9.94404 34.6646 9.94404C33.7139 9.94404 32.8788 10.1753 32.1593 10.6378C31.4398 11.0918 30.8788 11.6913 30.4763 12.4365C30.0823 13.1731 29.881 13.9825 29.8724 14.8647V17.6012C29.8724 18.7489 30.0823 19.7339 30.502 20.5561C30.9217 21.3698 31.5084 21.9951 32.2621 22.4319C33.0158 22.8602 33.898 23.0743 34.9087 23.0743C35.5853 23.0743 36.1977 22.9801 36.7459 22.7916C37.2941 22.5946 37.7694 22.3077 38.172 21.9308C38.5745 21.554 38.8786 21.0872 39.0842 20.5305L43.4266 21.0187C43.1526 22.1664 42.6301 23.1685 41.8592 24.025C41.097 24.8729 40.1205 25.5324 38.93 26.0035C37.7394 26.466 36.3776 26.6973 34.8445 26.6973Z" fill="white"/>
<path d="M59.6292 18.0123V6.57797H64.2801V26.3119H59.7706V22.8045H59.565C59.1196 23.9094 58.3873 24.813 57.3681 25.5153C56.3574 26.2177 55.1112 26.5688 53.6294 26.5688C52.3361 26.5688 51.1927 26.2819 50.1991 25.708C49.2141 25.1256 48.4433 24.282 47.8865 23.1771C47.3298 22.0636 47.0515 20.7189 47.0515 19.1429V6.57797H51.7023V18.4234C51.7023 19.6739 52.0449 20.6675 52.7301 21.4041C53.4153 22.1407 54.3146 22.509 55.4281 22.509C56.1133 22.509 56.7771 22.342 57.4195 22.0079C58.0618 21.6739 58.5886 21.1771 58.9997 20.5176C59.4194 19.8495 59.6292 19.0144 59.6292 18.0123Z" fill="white"/>
<path d="M68.3032 26.3119V23.3569L78.4784 10.5993V10.4322H68.6372V6.57797H84.1699V9.75132L74.4828 22.2906V22.4576H84.504V26.3119H68.3032Z" fill="white"/>
<path d="M91.2636 33.7121C90.6298 33.7121 90.0431 33.6607 89.5035 33.5579C88.9724 33.4637 88.5485 33.3524 88.2316 33.2239L89.3108 29.6009C89.9874 29.7978 90.5912 29.8921 91.1223 29.8835C91.6533 29.8749 92.1201 29.7079 92.5226 29.3824C92.9338 29.0655 93.2807 28.5345 93.5633 27.7893L93.9616 26.723L86.8055 6.57797H91.739L96.287 21.4812H96.4926L101.053 6.57797H106L98.0985 28.7015C97.7302 29.7465 97.242 30.6415 96.6339 31.3867C96.0258 32.1404 95.2806 32.7143 94.3984 33.1082C93.5248 33.5108 92.4798 33.7121 91.2636 33.7121Z" fill="white"/>
</svg>
