<svg width="28" height="28" viewBox="0 0 28 28" fill="none" xmlns="http://www.w3.org/2000/svg">
<path fill-rule="evenodd" clip-rule="evenodd" d="M1.74993 14C1.74993 14.2321 1.84211 14.4546 2.00621 14.6187C2.1703 14.7828 2.39287 14.875 2.62493 14.875L23.2628 14.875L17.7555 20.3805C17.5912 20.5448 17.4989 20.7677 17.4989 21C17.4989 21.2324 17.5912 21.4552 17.7555 21.6195C17.9198 21.7838 18.1426 21.8762 18.375 21.8762C18.6074 21.8762 18.8302 21.7838 18.9945 21.6195L25.9945 14.6195C26.076 14.5382 26.1407 14.4417 26.1848 14.3354C26.2289 14.2291 26.2516 14.1151 26.2516 14C26.2516 13.8849 26.2289 13.771 26.1848 13.6647C26.1407 13.5584 26.076 13.4618 25.9945 13.3805L18.9945 6.38048C18.9131 6.29913 18.8166 6.23459 18.7103 6.19057C18.604 6.14654 18.4901 6.12388 18.375 6.12388C18.1426 6.12388 17.9198 6.21618 17.7555 6.38048C17.5912 6.54478 17.4989 6.76763 17.4989 6.99998C17.4989 7.23234 17.5912 7.45518 17.7555 7.61949L23.2628 13.125L2.62493 13.125C2.39287 13.125 2.1703 13.2172 2.00621 13.3813C1.84211 13.5454 1.74993 13.7679 1.74993 14Z" fill="white"/>
</svg>
